# xmcd
#
# Track frame offsets:
#  150
#  20414
#  38539
#  59703
#  81389
#  109128
#  124486
#  145496
#  172616
#  191548
#  213781
#  236304
#  263069
#  285249
#
# Disc length: 4098 seconds
#
# Revision: 0
# Processed by: cddbd v1.5.1PL2 Copyright (c) Steve Scherf et al.
# Submitted via: Collectorz.com_Music_Collector 6.11
#
DISCID=be10000e
DTITLE=Various Blues Artists - Ultimate Southern Soul
DYEAR=1900
DGENRE=
TTITLE0=The Love Doctor - Slow Motion
TTITLE1=Sir Charles Jones - Friday
TTITLE2=La Keisha - Already Gone
TTITLE3=Mr. Zay - She Always Wants To See Me On Friday
TTITLE4=X-Man - Birds
TTITLE5=Big Ike - Teddy Bear
TTITLE6=Sir Charles Jones - Is Anybody Lonely?
TTITLE7=La Keisha and Sir Charles Jones - Just Another Love Song
TTITLE8=Andre' Lee - Pony Ride
TTITLE9=Stan Mosley - Rockin' Slide
TTITLE10=Cicero Blake - Waiting On You
TTITLE11=Tonya - Give Credit Where Credit Is Due
TTITLE12=The Love Doctor Featuring Thomisene Anderson - You Said It, No I Didn't (Lies)
TTITLE13=Eric Perkins - Hood Rat
EXTD=
EXTT0=
EXTT1=
EXTT2=
EXTT3=
EXTT4=
EXTT5=
EXTT6=
EXTT7=
EXTT8=
EXTT9=
EXTT10=
EXTT11=
EXTT12=
EXTT13=
PLAYORDER=
